# xmcd
#
# Track frame offsets: 
#        150
#        18969
#        37648
#        52879
#        70107
#        87146
#        101509
#        118820
#        131644
#        154282
#        170524
#        185579
#        201620
#        222322
#        238593
#        258931
#        279416
#        313481
#        331817
#
# Disc length: 4765 seconds
#
# Revision: 0
# Processed by: cddbd v1.5PL3 Copyright (c) Steve Scherf et al.
# Submitted via: ExactAudioCopy v0.90b4
#
DISCID=10129b13
DTITLE=Freddie King - Burglar+Larger Than Life - Freddie King
DYEAR=1900
DGENRE=Blues
TTITLE0=Pack It Up
TTITLE1=My Credit Didn't Go Through
TTITLE2=I Got The Same Old Blues
TTITLE3=Only Getting Second Best
TTITLE4=Texas Flyer
TTITLE5=Pulp Wood
TTITLE6=She's A Burglar
TTITLE7=Sugar Sweet
TTITLE8=I Had A Dream
TTITLE9=Come On (Let The Good Times Roll)
TTITLE10=It's Better To Have
TTITLE11=You Can Run But You Can't Hide
TTITLE12=Woke Up This Morning
TTITLE13=It's Your Move
TTITLE14=Boogie Bumb
TTITLE15=Meer Me In The Morning
TTITLE16=The Things I Used To Do
TTITLE17=Ain't That I Don't Love You
TTITLE18=Have You Ever Loved A Woman
EXTD=
EXTT0=
EXTT1=
EXTT2=
EXTT3=
EXTT4=
EXTT5=
EXTT6=
EXTT7=
EXTT8=
EXTT9=
EXTT10=
EXTT11=
EXTT12=
EXTT13=
EXTT14=
EXTT15=
EXTT16=
EXTT17=
EXTT18=
PLAYORDER=
